<?xml version="1.0" encoding="UTF-8"?>
<svg version="1.1" xmlns="http://www.w3.org/2000/svg" width="512" height="512">
<path d="M0 0 C4.46247107 3.64861876 9.5686244 7.85963471 11.5078125 13.42480469 C13.0805461 18.17369901 13.0805461 18.17369901 16.71386719 21.33227539 C19.21980493 22.02898522 21.67905343 22.48115089 24.25 22.875 C26.1605415 23.25196339 28.06938837 23.63760412 29.9765625 24.03125 C30.94368164 24.22589844 31.91080078 24.42054687 32.90722656 24.62109375 C63.52826802 31.39538118 92.63888183 49.08998098 115.4921875 70.1796875 C117.51475254 72.03428866 119.58483984 73.80035161 121.6875 75.5625 C135.85354223 87.99682164 147.52684708 103.89757647 156.75 120.25 C157.16604492 120.97719238 157.58208984 121.70438477 158.01074219 122.45361328 C167.37946495 138.98883564 175.0137588 156.41994541 178.53686523 175.17114258 C179.79362241 183.25586994 179.79362241 183.25586994 184.4375 189.6015625 C187.52819329 191.11177842 187.52819329 191.11177842 190.74609375 192.16796875 C199.0985262 195.17658226 203.00561755 202.91031812 206.62109375 210.515625 C210.19699905 219.17698733 210.12000399 230.38926206 207.125 239.25 C203.65648713 247.35128181 198.06657616 254.28560261 190.75 259.25 C190.03231445 259.50007813 189.31462891 259.75015625 188.57519531 260.0078125 C183.82630099 261.5805461 183.82630099 261.5805461 180.66772461 265.21386719 C179.97101478 267.71980493 179.51884911 270.17905343 179.125 272.75 C178.74803661 274.6605415 178.36239588 276.56938837 177.96875 278.4765625 C177.67677734 279.92724121 177.67677734 279.92724121 177.37890625 281.40722656 C170.60461882 312.02826802 152.91001902 341.13888183 131.8203125 363.9921875 C129.96571134 366.01475254 128.19964839 368.08483984 126.4375 370.1875 C114.00317836 384.35354223 98.10242353 396.02684708 81.75 405.25 C81.02280762 405.66604492 80.29561523 406.08208984 79.54638672 406.51074219 C63.01116436 415.87946495 45.58005459 423.5137588 26.82885742 427.03686523 C18.74413006 428.29362241 18.74413006 428.29362241 12.3984375 432.9375 C10.88822158 436.02819329 10.88822158 436.02819329 9.83203125 439.24609375 C6.82341774 447.5985262 -0.91031812 451.50561755 -8.515625 455.12109375 C-17.17698733 458.69699905 -28.38926206 458.62000399 -37.25 455.625 C-45.35128181 452.15648713 -52.28560261 446.56657616 -57.25 439.25 C-57.50007812 438.53231445 -57.75015625 437.81462891 -58.0078125 437.07519531 C-59.5805461 432.32630099 -59.5805461 432.32630099 -63.21386719 429.16772461 C-65.71980493 428.47101478 -68.17905343 428.01884911 -70.75 427.625 C-72.6605415 427.24803661 -74.56938837 426.86239588 -76.4765625 426.46875 C-77.44368164 426.27410156 -78.41080078 426.07945312 -79.40722656 425.87890625 C-110.02826802 419.10461882 -139.13888183 401.41001902 -161.9921875 380.3203125 C-164.01475254 378.46571134 -166.08483984 376.69964839 -168.1875 374.9375 C-182.35354223 362.50317836 -194.02684708 346.60242353 -203.25 330.25 C-203.66604492 329.52280762 -204.08208984 328.79561523 -204.51074219 328.04638672 C-213.87946495 311.51116436 -221.5137588 294.08005459 -225.03686523 275.32885742 C-226.29362241 267.24413006 -226.29362241 267.24413006 -230.9375 260.8984375 C-234.02819329 259.38822158 -234.02819329 259.38822158 -237.24609375 258.33203125 C-245.5985262 255.32341774 -249.50561755 247.58968188 -253.12109375 239.984375 C-256.69699905 231.32301267 -256.62000399 220.11073794 -253.625 211.25 C-248.84016419 200.07422964 -240.34328771 192.03158953 -229.25 187.25 C-228.59 187.25 -227.93 187.25 -227.25 187.25 C-227.21914307 186.67314453 -227.18828613 186.09628906 -227.15649414 185.50195312 C-226.61673144 178.24777175 -224.86909235 171.67061267 -222.6875 164.75 C-222.33034912 163.60797119 -221.97319824 162.46594238 -221.60522461 161.28930664 C-218.49424684 151.58242822 -214.7723116 142.37610629 -210.25 133.25 C-209.90888184 132.54617187 -209.56776367 131.84234375 -209.21630859 131.1171875 C-197.54349938 107.19526829 -180.02299034 84.03371365 -159.25 67.25 C-158.16376418 66.34019981 -157.07785887 65.43000494 -155.9921875 64.51953125 C-147.21780078 57.24232409 -138.13617392 50.92042846 -128.25 45.25 C-127.08670166 44.57904297 -127.08670166 44.57904297 -125.89990234 43.89453125 C-107.89175853 33.64721929 -82.61323191 20.32640163 -61.25 21.25 C-60.9096875 20.0125 -60.9096875 20.0125 -60.5625 18.75 C-56.26183347 7.28155591 -48.9047125 0.64006736 -38.01953125 -4.5859375 C-25.72036103 -9.75540538 -10.77250285 -7.52430543 0 0 Z M-103.25 61.25 C-104.21945557 61.71744629 -104.21945557 61.71744629 -105.20849609 62.19433594 C-146.58046174 82.32123814 -179.79065895 120.35771439 -195.38232422 163.54980469 C-199.91557364 176.13194816 -199.91557364 176.13194816 -201.25 189.25 C-200.05375 189.806875 -198.8575 190.36375 -197.625 190.9375 C-188.21433563 195.73379643 -182.68190697 202.94915012 -178.875 212.8125 C-176.24174671 227.29539309 -178.03620845 238.48547043 -186 251 C-190.39009187 255.39009187 -195.70634369 258.51961839 -201.25 261.25 C-200.80872195 268.17586809 -199.61781451 274.37564003 -197.375 280.9375 C-197.07255371 281.82961182 -196.77010742 282.72172363 -196.45849609 283.64086914 C-180.41874686 329.21607177 -148.09112938 366.13494892 -105.25 388.25 C-104.63447266 388.56807617 -104.01894531 388.88615234 -103.38476562 389.21386719 C-90.86999415 395.57764843 -73.55209183 404.14388074 -59.25 403.25 C-59.00765625 402.73050781 -58.7653125 402.21101563 -58.515625 401.67578125 C-53.84694281 391.96133101 -47.09218089 385.12243322 -36.75 381.375 C-24.79974537 378.00548863 -13.30806238 378.93685872 -2.36328125 384.9765625 C4.99097713 389.40814888 9.00715694 395.65068296 12.75 403.25 C19.67586809 402.80872195 25.87564003 401.61781451 32.4375 399.375 C33.32961182 399.07255371 34.22172363 398.77010742 35.14086914 398.45849609 C80.71607177 382.41874686 117.63494892 350.09112938 139.75 307.25 C140.06807617 306.63447266 140.38615234 306.01894531 140.71386719 305.38476562 C147.07960897 292.86613862 155.64419121 275.5570593 154.75 261.25 C154.15832031 260.94707031 153.56664062 260.64414062 152.95703125 260.33203125 C143.99140925 255.57864275 136.46950814 248.62678833 132.9375 238.875 C129.49526951 226.88866169 130.40674155 215.35159598 136.48046875 204.359375 C140.62429797 197.47424337 147.01544754 191.82818415 154.75 189.25 C153.90077877 173.68094414 147.45714342 159.09956805 140.75 145.25 C140.43691895 144.59789551 140.12383789 143.94579102 139.80126953 143.27392578 C127.21015541 117.40515188 107.65330515 95.40326087 84.75 78.25 C83.90695312 77.61191406 83.06390625 76.97382812 82.1953125 76.31640625 C67.29937023 65.45791635 50.32451314 57.32339032 32.9375 51.375 C31.64839722 50.92713135 31.64839722 50.92713135 30.33325195 50.47021484 C24.48234996 48.54146964 18.89614176 47.61583201 12.75 47.25 C12.25185791 48.2090625 12.25185791 48.2090625 11.74365234 49.1875 C7.06298149 58.10380067 0.03504024 65.56372217 -9.625 69.0625 C-21.54708916 72.48627945 -33.12167994 71.62383454 -44.0703125 65.58984375 C-51.12949125 61.25059946 -56.60163284 55.19510148 -59.25 47.25 C-74.17557629 46.81704185 -90.1164707 54.79353587 -103.25 61.25 Z " fill="#464545" transform="translate(279.25,30.75)"/>
<path d="M0 0 C9.31498338 7.41396636 14.28054218 16.57682524 15.9375 28.25 C16.77750305 39.77770145 13.36166012 49.31787982 6.875 58.6875 C2.4537925 63.1087075 -2.61213776 67.23037236 -8.875 68.4375 C-3.69389679 94.44527468 7.05482631 119.26899662 23.125 140.4375 C23.76824219 141.29085937 24.41148438 142.14421875 25.07421875 143.0234375 C42.06094102 164.86843125 62.5580972 181.75580094 87.125 194.4375 C87.74052734 194.75557617 88.35605469 195.07365234 88.99023438 195.40136719 C102.95948509 202.50475344 117.77471912 207.34574731 133.125 210.4375 C133.22941406 209.70273437 133.33382812 208.96796875 133.44140625 208.2109375 C135.34451082 200.4897704 142.19256636 195.04710926 148.5859375 190.875 C159.07892144 184.93435678 170.59479691 184.34959601 182.125 187.4375 C193.19637219 191.72570754 200.02171841 198.44623245 205.390625 208.90234375 C209.46461792 218.44179901 209.75432829 229.59247323 206.5 239.4375 C201.92313702 250.12751564 193.95165177 258.26460448 183.203125 262.7109375 C173.57230949 266.07810232 161.87505168 265.70249219 152.515625 261.6953125 C145.52536261 258.01742935 137.06597142 252.00778783 134.3671875 244.26269531 C132.7944539 239.51380099 132.7944539 239.51380099 129.16113281 236.35522461 C126.65519507 235.65851478 124.19594657 235.20634911 121.625 234.8125 C119.7144585 234.43553661 117.80561163 234.04989588 115.8984375 233.65625 C114.93131836 233.46160156 113.96419922 233.26695312 112.96777344 233.06640625 C82.34673198 226.29211882 53.23611817 208.59751902 30.3828125 187.5078125 C28.36024746 185.65321134 26.29016016 183.88714839 24.1875 182.125 C10.02145777 169.69067836 -1.65184708 153.78992353 -10.875 137.4375 C-11.29104492 136.71030762 -11.70708984 135.98311523 -12.13574219 135.23388672 C-21.50446495 118.69866436 -29.1387588 101.26755459 -32.66186523 82.51635742 C-33.91862241 74.43163006 -33.91862241 74.43163006 -38.5625 68.0859375 C-41.65319329 66.57572158 -41.65319329 66.57572158 -44.87109375 65.51953125 C-53.2235262 62.51091774 -57.13061755 54.77718188 -60.74609375 47.171875 C-64.32199905 38.51051267 -64.24500399 27.29823794 -61.25 18.4375 C-56.80547164 8.05657363 -48.97655826 0.07614926 -38.83203125 -4.8359375 C-26.62426088 -9.36816363 -10.64143926 -7.19605524 0 0 Z " fill="#474545" transform="translate(86.875,223.5625)"/>
<path d="M0 0 C-0.01740234 1.80984375 -0.01740234 1.80984375 -0.03515625 3.65625 C-0.04454335 5.27083177 -0.05364256 6.88541524 -0.0625 8.5 C-0.07087891 9.29148437 -0.07925781 10.08296875 -0.08789062 10.8984375 C-0.10891185 16.02761717 0.26062713 20.92336106 1 26 C0.4330542 26.13986328 -0.1338916 26.27972656 -0.71801758 26.42382812 C-34.08089048 34.77545583 -62.5735491 49.79111865 -88 73 C-88.81855469 73.74636719 -89.63710937 74.49273437 -90.48046875 75.26171875 C-116.18121196 99.87074898 -131.63498086 132.9477097 -140 167 C-140.60408691 166.92322021 -141.20817383 166.84644043 -141.83056641 166.76733398 C-149.88048297 165.7753625 -157.90614209 165.90962193 -166 166 C-165.57829973 158.11651714 -163.80499441 151.01034529 -161.4375 143.5 C-161.08034912 142.35797119 -160.72319824 141.21594238 -160.35522461 140.03930664 C-157.24424684 130.33242822 -153.5223116 121.12610629 -149 112 C-148.65888184 111.29617187 -148.31776367 110.59234375 -147.96630859 109.8671875 C-136.29349938 85.94526829 -118.77299034 62.78371365 -98 46 C-96.91376418 45.09019981 -95.82785887 44.18000494 -94.7421875 43.26953125 C-85.96780078 35.99232409 -76.88617392 29.67042846 -67 24 C-66.22446777 23.55269531 -65.44893555 23.10539062 -64.64990234 22.64453125 C-46.64175853 12.39721929 -21.36323191 -0.92359837 0 0 Z " fill="#464545" transform="translate(218,52)"/>
<path d="M0 0 C1.42505859 0.24556641 1.42505859 0.24556641 2.87890625 0.49609375 C7.56533049 1.16558293 12.21268306 1.10920922 16.9375 1.0625 C17.81212891 1.05798828 18.68675781 1.05347656 19.58789062 1.04882812 C21.72529047 1.03714834 23.86265463 1.01921689 26 1 C25.57829973 8.88348286 23.80499441 15.98965471 21.4375 23.5 C20.90177368 25.21304321 20.90177368 25.21304321 20.35522461 26.96069336 C17.24424684 36.66757178 13.5223116 45.87389371 9 55 C8.65888184 55.70382812 8.31776367 56.40765625 7.96630859 57.1328125 C-1.23993286 75.99981874 -13.85541542 92.37376325 -28.0625 107.75 C-28.6282373 108.36439941 -29.19397461 108.97879883 -29.77685547 109.61181641 C-42.12935439 122.79658851 -57.26983682 134.18638631 -73 143 C-73.72574219 143.41459473 -74.45148438 143.82918945 -75.19921875 144.25634766 C-93.28969836 154.50786536 -118.54250473 167.92767367 -140 167 C-139.98259766 165.06447266 -139.98259766 165.06447266 -139.96484375 163.08984375 C-139.9554588 161.37239729 -139.94635936 159.65494925 -139.9375 157.9375 C-139.92912109 157.08994141 -139.92074219 156.24238281 -139.91210938 155.36914062 C-139.89316994 150.4638278 -140.16673655 145.83555245 -141 141 C-139.29070312 140.5978125 -139.29070312 140.5978125 -137.546875 140.1875 C-90.54563297 128.72341501 -49.31472375 100.20898699 -23.70947266 58.91894531 C-20.97737024 54.36362061 -18.43624153 49.71947083 -16 45 C-15.68192383 44.38447266 -15.36384766 43.76894531 -15.03613281 43.13476562 C-8.09172584 29.47815755 -3.33899942 14.93762897 0 0 Z " fill="#464545" transform="translate(434,293)"/>
<path d="M0 0 C9.31498338 7.41396636 14.28054218 16.57682524 15.9375 28.25 C16.77750305 39.77770145 13.36166012 49.31787982 6.875 58.6875 C-1.63605383 67.19855383 -11.8101946 71.77892023 -23.875 71.9375 C-35.66332039 71.78240874 -44.41562426 67.69832935 -52.78125 59.58984375 C-61.35123489 50.45699968 -63.37492366 40.72629552 -63.15234375 28.55859375 C-62.64059541 17.45543709 -56.94020609 9.03608289 -49 1.6875 C-35.43652036 -9.67159002 -14.59174912 -9.86737133 0 0 Z " fill="#FB6458" transform="translate(86.875,223.5625)"/>
<path d="M0 0 C7.85977978 6.42633634 13.82505289 14.08555967 15.75 24.25 C16.58471518 36.52441826 15.65720152 47.18628898 7.75 57.25 C-0.43086953 66.33985503 -9.32972549 71.35329007 -21.58203125 72.24609375 C-32.91248903 72.262683 -43.29067561 68.71878416 -51.65625 60.96484375 C-60.6649167 51.27169502 -62.83786595 40.75972562 -62.53515625 27.76953125 C-61.71070081 17.59371816 -56.72664847 8.94453465 -49.4140625 1.921875 C-34.96681202 -9.23953873 -15.09961801 -10.54667975 0 0 Z " fill="#FB6458" transform="translate(279.25,30.75)"/>
<path d="M0 0 C8.51105383 8.51105383 13.09142023 18.6851946 13.25 30.75 C13.09490874 42.53832039 9.01082935 51.29062426 0.90234375 59.65625 C-8.23050032 68.22623489 -17.96120448 70.24992366 -30.12890625 70.02734375 C-41.21805693 69.51624096 -49.6092992 63.813607 -57 55.9375 C-65.18255113 46.18569249 -66.10598338 35.03947566 -65.25 22.75 C-63.17525933 12.0888326 -58.04252783 4.3218103 -49.375 -2.125 C-33.50405851 -12.51325261 -15.24643737 -10.55522587 0 0 Z " fill="#FB6458" transform="translate(282.25,418.25)"/>
<path d="M0 0 C7.64005244 6.31852986 13.28405856 13.91988387 15.16796875 23.79296875 C16.01398511 36.23356995 15.06136931 46.91770692 6.859375 56.94921875 C-0.75474656 65.24913878 -8.82273946 70.22880385 -20.21484375 71.03125 C-32.44676544 71.27384552 -42.02710327 68.91740393 -51.33203125 60.54296875 C-59.44461065 51.61913141 -63.8140433 43.0787414 -63.83203125 30.79296875 C-63.04964087 20.05288267 -59.54065142 10.50158892 -51.83203125 2.79296875 C-36.83967367 -9.62927039 -16.22273367 -11.6286852 0 0 Z " fill="#FB6458" transform="translate(472.83203125,224.20703125)"/>
<path d="M0 0 C1.27472168 -0.00630432 2.54944336 -0.01260864 3.86279297 -0.019104 C5.26009254 -0.01552433 6.65739087 -0.01142239 8.0546875 -0.00683594 C9.48193427 -0.00818265 10.90918059 -0.01012323 12.33642578 -0.01263428 C15.32914595 -0.01558528 18.32174681 -0.01128876 21.31445312 -0.00195312 C25.15485123 0.00944151 28.99496982 0.00288189 32.83535767 -0.00909805 C35.7829805 -0.01631737 38.73053681 -0.01402842 41.67816162 -0.00884247 C43.09438103 -0.00750616 44.51060644 -0.00915303 45.92681885 -0.01380157 C47.90433643 -0.01886768 49.88187512 -0.00978001 51.859375 0 C53.54909424 0.00238678 53.54909424 0.00238678 55.27294922 0.00482178 C57.9296875 0.25878906 57.9296875 0.25878906 59.9296875 2.25878906 C60.3527832 4.93481445 60.3527832 4.93481445 60.60546875 8.35644531 C60.70867432 9.62157959 60.81187988 10.88671387 60.91821289 12.19018555 C60.99678024 13.20107742 60.99678024 13.20107742 61.07693481 14.23239136 C62.37890336 30.69009122 64.96805377 46.72721174 69.0625 62.73925781 C69.89520136 66.11882503 70.34113911 68.80259558 69.9296875 72.25878906 C66.66061244 74.43817244 65.73786705 74.50776374 61.95507812 74.50170898 C60.94392944 74.50478561 59.93278076 74.50786224 58.89099121 74.5110321 C57.25498962 74.50025383 57.25498962 74.50025383 55.5859375 74.48925781 C54.46529907 74.48879959 53.34466064 74.48834137 52.19006348 74.48786926 C49.81956931 74.48484683 47.44907714 74.47696083 45.07861328 74.46459961 C41.44426458 74.44636221 37.8101709 74.44408981 34.17578125 74.44433594 C31.87499779 74.43941999 29.57421606 74.43359134 27.2734375 74.42675781 C26.18276978 74.42564499 25.09210205 74.42453217 23.96838379 74.42338562 C22.95723511 74.41700577 21.94608643 74.41062592 20.90429688 74.40405273 C20.0139978 74.40024094 19.12369873 74.39642914 18.2064209 74.39250183 C15.9296875 74.25878906 15.9296875 74.25878906 12.9296875 73.25878906 C11.36874786 70.82057714 10.00420123 68.44753768 8.6796875 65.88378906 C8.28563721 65.12573975 7.89158691 64.36769043 7.4855957 63.58666992 C-1.32489811 46.18465395 -8.08252797 26.08577009 -8.2578125 6.38378906 C-8.27199219 5.64386719 -8.28617187 4.90394531 -8.30078125 4.14160156 C-7.71158031 -0.67187054 -3.89796109 0.00550599 0 0 Z " fill="#00C078" transform="translate(120.0703125,259.7412109375)"/>
<path d="M0 0 C1.27472168 -0.00630432 2.54944336 -0.01260864 3.86279297 -0.019104 C5.26009254 -0.01552433 6.65739087 -0.01142239 8.0546875 -0.00683594 C9.48193427 -0.00818265 10.90918059 -0.01012323 12.33642578 -0.01263428 C15.32914595 -0.01558528 18.32174681 -0.01128876 21.31445312 -0.00195312 C25.15485123 0.00944151 28.99496982 0.00288189 32.83535767 -0.00909805 C35.7829805 -0.01631737 38.73053681 -0.01402842 41.67816162 -0.00884247 C43.09438103 -0.00750616 44.51060644 -0.00915303 45.92681885 -0.01380157 C47.90433643 -0.01886768 49.88187512 -0.00978001 51.859375 0 C53.54909424 0.00238678 53.54909424 0.00238678 55.27294922 0.00482178 C57.9296875 0.25878906 57.9296875 0.25878906 59.9296875 2.25878906 C62.78752001 25.0352983 51.6610953 55.46883708 37.9296875 73.25878906 C35.46411004 74.49157779 33.8258627 74.39227695 31.06860352 74.40405273 C29.5517672 74.41362251 29.5517672 74.41362251 28.00428772 74.42338562 C26.3605442 74.42505486 26.3605442 74.42505486 24.68359375 74.42675781 C23.56154037 74.43008621 22.439487 74.43341461 21.28343201 74.43684387 C18.90697643 74.44191358 16.53051371 74.44425218 14.15405273 74.4440918 C10.51078612 74.4462779 6.86782236 74.46443235 3.22460938 74.48339844 C0.91927187 74.48633237 -1.38606707 74.48831717 -3.69140625 74.48925781 C-4.78521103 74.49644333 -5.87901581 74.50362885 -7.00596619 74.5110321 C-8.02034256 74.50795547 -9.03471893 74.50487885 -10.07983398 74.50170898 C-11.4198069 74.50384651 -11.4198069 74.50384651 -12.78684998 74.50602722 C-15.0703125 74.25878906 -15.0703125 74.25878906 -18.0703125 72.25878906 C-17.56311214 65.37404778 -16.38254701 58.9416832 -14.6953125 52.25878906 C-11.43290779 38.67485142 -9.78637556 24.81918916 -8.84179688 10.88867188 C-8.76767578 9.80682617 -8.69355469 8.72498047 -8.6171875 7.61035156 C-8.55885742 6.63146973 -8.50052734 5.65258789 -8.44042969 4.64404297 C-7.64085315 -0.50890079 -4.45479851 0.00629254 0 0 Z " fill="#00C078" transform="translate(340.0703125,259.7412109375)"/>
<path d="M0 0 C0.9782373 -0.01836914 1.95647461 -0.03673828 2.96435547 -0.05566406 C4.15170288 -0.08539307 4.15170288 -0.08539307 5.36303711 -0.11572266 C7.30419922 0.09277344 7.30419922 0.09277344 10.30419922 2.09277344 C9.79699886 8.97751472 8.61643373 15.4098793 6.92919922 22.09277344 C3.66679451 35.67671108 2.02026228 49.53237334 1.07568359 63.46289062 C1.0015625 64.54473633 0.92744141 65.62658203 0.85107422 66.74121094 C0.79274414 67.72009277 0.73441406 68.69897461 0.67431641 69.70751953 C0.30419922 72.09277344 0.30419922 72.09277344 -1.69580078 74.09277344 C-4.35253906 74.34674072 -4.35253906 74.34674072 -7.76611328 74.3515625 C-9.6781958 74.36101898 -9.6781958 74.36101898 -11.62890625 74.3706665 C-13.02620583 74.36708683 -14.42350415 74.36298489 -15.82080078 74.35839844 C-17.24804755 74.35974515 -18.67529387 74.36168573 -20.10253906 74.36419678 C-23.09525923 74.36714778 -26.08786009 74.36285126 -29.08056641 74.35351562 C-32.92096452 74.34212099 -36.7610831 74.34868061 -40.60147095 74.36066055 C-43.54909378 74.36787987 -46.49665009 74.36559092 -49.4442749 74.36040497 C-50.86049431 74.35906866 -52.27671972 74.36071553 -53.69293213 74.36536407 C-55.67044971 74.37043018 -57.6479884 74.36134251 -59.62548828 74.3515625 C-61.31520752 74.34917572 -61.31520752 74.34917572 -63.0390625 74.34674072 C-65.69580078 74.09277344 -65.69580078 74.09277344 -67.69580078 72.09277344 C-68.62197796 48.16652964 -59.93793459 23.32747276 -47.69580078 3.09277344 C-44.60108153 -0.00194581 -40.85935952 0.73369519 -36.69970703 0.67871094 C-35.79639145 0.65934479 -34.89307587 0.63997864 -33.96238708 0.62002563 C-31.06112219 0.56015487 -28.15981294 0.51393222 -25.25830078 0.46777344 C-23.33705938 0.42957843 -21.41583483 0.39052581 -19.49462891 0.35058594 C-14.9934253 0.25972321 -10.49224163 0.18902454 -5.99053955 0.1282959 C-3.99347441 0.09738141 -1.99667542 0.05012133 0 0 Z " fill="#00C078" transform="translate(179.69580078125,177.9072265625)"/>
<path d="M0 0 C5.36022647 -0.13913083 5.36022647 -0.13913083 8.41043091 2.11386108 C10.95193189 5.46723043 12.85416376 8.79545278 14.66043091 12.58261108 C15.0036438 13.28966187 15.34685669 13.99671265 15.70046997 14.72518921 C23.98193286 32.03601755 30.93673556 52.61896517 29.66043091 72.08261108 C26.92581331 74.81722868 25.41758417 74.33599373 21.59011841 74.34140015 C19.67803589 74.35085663 19.67803589 74.35085663 17.72732544 74.36050415 C16.33002586 74.35692447 14.93272754 74.35282254 13.53543091 74.34823608 C12.10818414 74.34958279 10.68093782 74.35152338 9.25369263 74.35403442 C6.26097246 74.35698542 3.2683716 74.35268891 0.27566528 74.34335327 C-3.56473283 74.33195864 -7.40485141 74.33851825 -11.24523926 74.3504982 C-14.19286209 74.35771751 -17.1404184 74.35542857 -20.08804321 74.35024261 C-21.50426262 74.34890631 -22.92048803 74.35055318 -24.33670044 74.35520172 C-26.31421802 74.36026783 -28.29175671 74.35118016 -30.26925659 74.34140015 C-31.95897583 74.33901337 -31.95897583 74.33901337 -33.68283081 74.33657837 C-36.33956909 74.08261108 -36.33956909 74.08261108 -38.33956909 72.08261108 C-38.76266479 69.40658569 -38.76266479 69.40658569 -39.01535034 65.98495483 C-39.11855591 64.71982056 -39.22176147 63.45468628 -39.32809448 62.1512146 C-39.38047272 61.47728668 -39.43285095 60.80335876 -39.48681641 60.10900879 C-40.78851059 43.65477699 -43.3591909 27.60900326 -47.48019409 11.60604858 C-48.29603134 8.26111585 -48.59013827 5.50705657 -48.33956909 2.08261108 C-46.80264362 0.54568562 -45.36432019 0.92036214 -43.22213745 0.87728882 C-42.34710068 0.8573436 -41.4720639 0.83739838 -40.57051086 0.81684875 C-39.61644852 0.80013626 -38.66238617 0.78342377 -37.67941284 0.76620483 C-36.70097916 0.74542374 -35.72254547 0.72464264 -34.71446228 0.70323181 C-31.56873879 0.63763626 -28.4229263 0.57890542 -25.27706909 0.52011108 C-23.18135711 0.47691887 -21.08565379 0.43330435 -18.98995972 0.38925171 C-8.49749143 0.17439723 -8.49749143 0.17439723 -4.78387451 0.12249756 C-3.18893931 0.09647121 -1.59415403 0.05629019 0 0 Z " fill="#00C078" transform="translate(370.3395690917969,177.91738891601563)"/>
<path d="M0 0 C1.8569751 -0.00472824 1.8569751 -0.00472824 3.75146484 -0.009552 C5.11295609 -0.00776222 6.47444701 -0.00571127 7.8359375 -0.00341797 C9.22216814 -0.00409106 10.60839867 -0.00506113 11.99462891 -0.00631714 C14.90333172 -0.00779387 17.81200387 -0.00564037 20.72070312 -0.00097656 C24.45690348 0.00472073 28.19303202 0.00144159 31.92922974 -0.00454903 C34.79273016 -0.00815532 37.65621343 -0.00701574 40.51971436 -0.00442123 C41.89768482 -0.00375215 43.27565682 -0.00457973 44.65362549 -0.00690079 C46.57637504 -0.00942839 48.49913002 -0.0048957 50.421875 0 C52.06615479 0.00119339 52.06615479 0.00119339 53.74365234 0.00241089 C56.2109375 0.12939453 56.2109375 0.12939453 57.2109375 1.12939453 C58.37289572 19.58665393 55.44981051 37.78088658 51.2109375 55.69189453 C50.9619873 56.74449463 50.71303711 57.79709473 50.45654297 58.8815918 C49.20042885 63.93854106 47.95948907 68.64059157 45.2109375 73.12939453 C42.83401317 74.31785669 41.36907739 74.26235203 38.71704102 74.2746582 C37.32032921 74.28422798 37.32032921 74.28422798 35.895401 74.29399109 C34.38290016 74.29566032 34.38290016 74.29566032 32.83984375 74.29736328 C31.28993996 74.30235588 31.28993996 74.30235588 29.70872498 74.30744934 C27.52058356 74.31251833 25.33243439 74.31485768 23.14428711 74.31469727 C19.79072374 74.31688326 16.43748947 74.33503807 13.08398438 74.35400391 C10.96093863 74.35693788 8.83789132 74.35892265 6.71484375 74.35986328 C5.20537926 74.37064156 5.20537926 74.37064156 3.66542053 74.38163757 C2.73112717 74.37856094 1.7968338 74.37548431 0.83422852 74.37231445 C0.01197281 74.37373947 -0.8102829 74.37516449 -1.65745544 74.37663269 C-3.7890625 74.12939453 -3.7890625 74.12939453 -6.7890625 72.12939453 C-7.15655518 69.20018005 -7.15655518 69.20018005 -7.14550781 65.40063477 C-7.14755219 64.7094455 -7.14959656 64.01825623 -7.15170288 63.30612183 C-7.15471643 61.01647679 -7.1362191 58.72754796 -7.1171875 56.43798828 C-7.11413104 54.85140664 -7.11225406 53.26482232 -7.11151123 51.67823792 C-7.10690475 48.35171252 -7.09246475 45.02542876 -7.0703125 41.69897461 C-7.0420068 37.42583224 -7.03109918 33.15288019 -7.0266304 28.87965298 C-7.02248233 25.60352152 -7.01267039 22.3274289 -7.00075531 19.05131721 C-6.99504133 17.47518286 -6.99028638 15.89904473 -6.98648834 14.32290459 C-6.97964626 12.12478885 -6.96602445 9.9268268 -6.95019531 7.72875977 C-6.94336731 6.47570541 -6.93653931 5.22265106 -6.92950439 3.93162537 C-6.68045078 -1.03773021 -4.44375764 0.0032252 0 0 Z " fill="#00C078" transform="translate(266.7890625,259.87060546875)"/>
<path d="M0 0 C1.8569751 -0.00472824 1.8569751 -0.00472824 3.75146484 -0.009552 C5.11295609 -0.00776222 6.47444701 -0.00571127 7.8359375 -0.00341797 C9.22216814 -0.00409106 10.60839867 -0.00506113 11.99462891 -0.00631714 C14.90333172 -0.00779387 17.81200387 -0.00564037 20.72070312 -0.00097656 C24.45690348 0.00472073 28.19303202 0.00144159 31.92922974 -0.00454903 C34.79273016 -0.00815532 37.65621343 -0.00701574 40.51971436 -0.00442123 C41.89768482 -0.00375215 43.27565682 -0.00457973 44.65362549 -0.00690079 C46.57637504 -0.00942839 48.49913002 -0.0048957 50.421875 0 C52.06615479 0.00119339 52.06615479 0.00119339 53.74365234 0.00241089 C56.2109375 0.12939453 56.2109375 0.12939453 57.2109375 1.12939453 C57.32108087 3.32708021 57.36008008 5.52834841 57.37207031 7.72875977 C57.37951767 8.76291519 57.37951767 8.76291519 57.38711548 9.81796265 C57.40176972 12.10798119 57.40854413 14.39793048 57.4140625 16.68798828 C57.41981086 18.27360538 57.42556863 19.85922245 57.43133545 21.44483948 C57.44185445 24.77304408 57.44769135 28.10122446 57.45117188 31.42944336 C57.45666138 35.70149903 57.48069509 39.97323672 57.50914383 44.24519253 C57.52773415 47.52135667 57.53297385 50.79744364 57.53450775 54.07365608 C57.53754253 55.64898481 57.54559869 57.22431193 57.55869293 58.79958916 C57.57568046 61.00018642 57.57389177 63.1999992 57.56738281 65.40063477 C57.57285126 67.28140968 57.57285126 67.28140968 57.57843018 69.20018005 C57.45715759 70.16682083 57.33588501 71.13346161 57.2109375 72.12939453 C54.04646182 74.23904499 53.24329138 74.38607427 49.61938477 74.41992188 C48.69154678 74.43268158 47.7637088 74.44544128 46.80775452 74.45858765 C45.30770119 74.46192612 45.30770119 74.46192612 43.77734375 74.46533203 C42.23311989 74.47531723 42.23311989 74.47531723 40.65769958 74.48550415 C38.47974435 74.4956324 36.30175806 74.50032112 34.1237793 74.5 C30.78968257 74.50437322 27.45690931 74.5406921 24.12304688 74.57861328 C22.00781703 74.58448133 19.8925809 74.5884508 17.77734375 74.59033203 C16.77933243 74.60470306 15.78132111 74.6190741 14.75306702 74.63388062 C7.88981751 74.58851885 7.88981751 74.58851885 4.65039062 72.39770508 C3.14690713 70.02849457 2.31143855 68.0901304 1.61328125 65.37548828 C1.37053467 64.44752441 1.12778809 63.51956055 0.87768555 62.56347656 C0.63703369 61.57460449 0.39638184 60.58573242 0.1484375 59.56689453 C-0.10832764 58.54708496 -0.36509277 57.52727539 -0.62963867 56.4765625 C-2.92271617 47.11055338 -4.58426322 37.69276462 -5.7890625 28.12939453 C-5.88477539 27.40268555 -5.98048828 26.67597656 -6.07910156 25.92724609 C-6.75033696 20.47909165 -6.94131233 15.11569377 -6.9140625 9.62939453 C-6.91986328 8.41509766 -6.91986328 8.41509766 -6.92578125 7.17626953 C-6.91421835 0.28478145 -6.78599745 0.00492516 0 0 Z " fill="#00C178" transform="translate(194.7890625,259.87060546875)"/>
<path d="M0 0 C1.20601112 -0.01821808 1.20601112 -0.01821808 2.43638611 -0.0368042 C3.15762161 -0.05064651 3.87885712 -0.06448883 4.62194824 -0.07875061 C6.48497009 0.0581665 6.48497009 0.0581665 8.85606384 1.394104 C11.40066731 5.55578162 12.40499112 9.9698192 13.54747009 14.6831665 C13.80423523 15.7062793 14.06100037 16.72939209 14.32554626 17.7835083 C16.53712478 26.81031638 18.2149633 35.85535612 19.48497009 45.0581665 C19.61645447 45.94890869 19.74793884 46.83965088 19.88340759 47.75738525 C20.58737504 53.36058564 20.5819918 58.98112021 20.60997009 64.6206665 C20.61472351 65.43213135 20.61947693 66.24359619 20.62437439 67.07965088 C20.60755416 72.93558244 20.60755416 72.93558244 19.48497009 74.0581665 C17.55735192 74.15737513 15.62607655 74.18616015 13.69590759 74.18756104 C12.45792419 74.1907132 11.2199408 74.19386536 9.94444275 74.19711304 C8.5829515 74.19532325 7.22146058 74.1932723 5.85997009 74.190979 C4.47373945 74.1916521 3.08750892 74.19262216 1.70127869 74.19387817 C-1.20742412 74.1953549 -4.11609628 74.1932014 -7.02479553 74.1885376 C-10.76099589 74.18284031 -14.49712442 74.18611945 -18.23332214 74.19211006 C-21.09682256 74.19571635 -23.96030584 74.19457678 -26.82380676 74.19198227 C-28.20177723 74.19131319 -29.57974922 74.19214077 -30.9577179 74.19446182 C-32.88046745 74.19698942 -34.80322243 74.19245674 -36.72596741 74.18756104 C-38.37024719 74.18636765 -38.37024719 74.18636765 -40.04774475 74.18515015 C-42.51502991 74.0581665 -42.51502991 74.0581665 -43.51502991 73.0581665 C-43.61463143 70.85491677 -43.64302748 68.6484316 -43.64442444 66.44293213 C-43.64617676 65.75188889 -43.64792908 65.06084564 -43.6497345 64.34886169 C-43.65415245 62.05402143 -43.65121524 59.75925761 -43.64784241 57.4644165 C-43.64851546 55.87640366 -43.6494855 54.28839091 -43.65074158 52.70037842 C-43.65221847 49.367971 -43.65006427 46.03559035 -43.645401 42.70318604 C-43.63970371 38.4221814 -43.64298276 34.14123945 -43.64897346 29.86023712 C-43.65257931 26.57982914 -43.65144039 23.29943613 -43.64884567 20.01902771 C-43.64817647 18.44009901 -43.6490046 16.86116896 -43.65132523 15.28224182 C-43.65385213 13.07925798 -43.65001066 10.87637702 -43.64442444 8.67340088 C-43.64362885 7.41733032 -43.64283325 6.16125977 -43.64201355 4.86712646 C-43.51502991 2.0581665 -43.51502991 2.0581665 -42.51502991 1.0581665 C-39.66493296 0.89751426 -36.83653648 0.79841323 -33.98377991 0.74176025 C-32.68615723 0.71058861 -32.68615723 0.71058861 -31.36231995 0.67878723 C-28.5799737 0.61320747 -25.79752622 0.5544956 -23.01502991 0.4956665 C-21.16866583 0.45246819 -19.32231145 0.40885347 -17.47596741 0.36480713 C-11.65086211 0.23007072 -5.82498718 0.13471774 0 0 Z " fill="#00C078" transform="translate(303.51502990722656,177.94183349609375)"/>
<path d="M0 0 C1.33439117 -0.02719116 1.33439117 -0.02719116 2.69573975 -0.05493164 C3.50326691 -0.07616089 4.31079407 -0.09739014 5.14279175 -0.1192627 C7.28900146 0.08374023 7.28900146 0.08374023 10.28900146 2.08374023 C10.65649414 5.01295471 10.65649414 5.01295471 10.64544678 8.8125 C10.64749115 9.50368927 10.64953552 10.19487854 10.65164185 10.90701294 C10.65465539 13.19665798 10.63615807 15.48558681 10.61712646 17.77514648 C10.61407001 19.36172812 10.61219302 20.94831244 10.6114502 22.53489685 C10.60684371 25.86142224 10.59240371 29.18770601 10.57025146 32.51416016 C10.54194577 36.78730253 10.53103814 41.06025457 10.52656937 45.33348179 C10.5224213 48.60961325 10.51260935 51.88570586 10.50069427 55.16181755 C10.49498029 56.73795191 10.49022534 58.31409004 10.48642731 59.89023018 C10.47958523 62.08834591 10.46596342 64.28630796 10.45013428 66.484375 C10.44330627 67.73742935 10.43647827 68.9904837 10.42944336 70.2815094 C10.28900146 73.08374023 10.28900146 73.08374023 9.28900146 74.08374023 C7.36138329 74.18294886 5.43010792 74.21173388 3.49993896 74.21313477 C2.26195557 74.21628693 1.02397217 74.21943909 -0.25152588 74.22268677 C-1.61301712 74.22089699 -2.97450805 74.21884603 -4.33599854 74.21655273 C-5.72222918 74.21722583 -7.1084597 74.21819589 -8.49468994 74.2194519 C-11.40339275 74.22092863 -14.31206491 74.21877513 -17.22076416 74.21411133 C-20.95696452 74.20841404 -24.69309305 74.21169318 -28.42929077 74.21768379 C-31.29279119 74.22129008 -34.15627447 74.22015051 -37.01977539 74.217556 C-38.39774585 74.21688692 -39.77571785 74.2177145 -41.15368652 74.22003555 C-43.07643608 74.22256315 -44.99919105 74.21803047 -46.92193604 74.21313477 C-48.56621582 74.21194138 -48.56621582 74.21194138 -50.24371338 74.21072388 C-52.71099854 74.08374023 -52.71099854 74.08374023 -53.71099854 73.08374023 C-54.87295675 54.62648084 -51.94987155 36.43224819 -47.71099854 18.52124023 C-47.46204834 17.46864014 -47.21309814 16.41604004 -46.956604 15.33154297 C-45.68014083 10.19267109 -44.18976925 5.79383493 -41.71099854 1.08374023 C-36.33994838 0.93963328 -30.96885538 0.79728539 -25.59771729 0.65649414 C-23.77446262 0.60846286 -21.95122006 0.55996959 -20.12799072 0.51098633 C-17.49162881 0.44024058 -14.85522634 0.37121396 -12.21881104 0.30249023 C-11.4173465 0.28061646 -10.61588196 0.25874268 -9.79013062 0.23620605 C-6.52668503 0.15244694 -3.26299923 0.10079102 0 0 Z " fill="#00C178" transform="translate(241.71099853515625,177.916259765625)"/>
<path d="M0 0 C0.95446518 -0.00315216 1.90893036 -0.00630432 2.89231873 -0.009552 C3.93082474 -0.00752777 4.96933075 -0.00550354 6.03930664 -0.00341797 C7.62818443 -0.00485306 7.62818443 -0.00485306 9.24916077 -0.00631714 C11.4945583 -0.00699917 13.73995779 -0.00514331 15.98535156 -0.00097656 C19.43111589 0.00436608 22.87674955 -0.00091809 26.32250977 -0.00732422 C28.49894235 -0.00666334 30.67537485 -0.00538197 32.85180664 -0.00341797 C33.88828842 -0.0054422 34.9247702 -0.00746643 35.99266052 -0.009552 C36.95027786 -0.00639984 37.9078952 -0.00324768 38.89453125 0 C39.73978867 0.00079559 40.58504608 0.00159119 41.45591736 0.00241089 C43.51196289 0.12939453 43.51196289 0.12939453 45.51196289 1.12939453 C46.01732925 5.20276918 45.76471965 6.77462423 43.34399414 10.17236328 C42.35527783 11.23734144 41.34743098 12.28477307 40.32446289 13.31689453 C39.78418457 13.87860352 39.24390625 14.4403125 38.68725586 15.01904297 C19.8535781 34.25967141 -8.74364843 53.97770856 -36.36303711 56.37939453 C-38.48803711 56.12939453 -38.48803711 56.12939453 -40.48803711 54.12939453 C-40.43353698 50.5384416 -39.65588366 49.29945323 -37.11694336 46.72705078 C-36.1050293 45.89044922 -35.09311523 45.05384766 -34.05053711 44.19189453 C-21.37674287 33.15031704 -14.117352 18.5700345 -6.79663086 3.69189453 C-4.82200906 -0.17482756 -4.22312282 0.00397873 0 0 Z " fill="#00AF68" transform="translate(322.488037109375,340.87060546875)"/>
<path d="M0 0 C6.10743449 0.10726652 11.8231901 1.59614802 17.5625 3.5625 C18.33480957 3.82426025 19.10711914 4.08602051 19.90283203 4.35571289 C27.97835687 7.19245752 35.49503423 10.91267392 43 15 C44.08152344 15.5775 45.16304688 16.155 46.27734375 16.75 C59.87935043 24.31250564 74.80189516 36.2248544 84 49 C84.5 51.8125 84.5 51.8125 84 54 C81.53223508 56.46776492 80.81191248 56.25966318 77.41430664 56.29052734 C76.46314468 56.30328705 75.51198273 56.31604675 74.53199768 56.32919312 C72.98668617 56.33253159 72.98668617 56.33253159 71.41015625 56.3359375 C70.35469101 56.3425943 69.29922577 56.3492511 68.21177673 56.35610962 C65.9765701 56.36624792 63.74133312 56.37092628 61.50610352 56.37060547 C58.07973544 56.37497801 54.65465554 56.41128464 51.22851562 56.44921875 C49.05990025 56.45508667 46.89127874 56.45905623 44.72265625 56.4609375 C43.69447281 56.47530853 42.66628937 56.48967957 41.60694885 56.50448608 C40.65263474 56.49833282 39.69832062 56.49217957 38.71508789 56.48583984 C37.45505699 56.4901149 37.45505699 56.4901149 36.16957092 56.49447632 C34 56 34 56 32.26356506 54.08265686 C31.11889567 52.19596845 30.14571103 50.37232802 29.2734375 48.34765625 C28.81638428 47.31632568 28.81638428 47.31632568 28.35009766 46.26416016 C28.02831543 45.5376123 27.7065332 44.81106445 27.375 44.0625 C20.63605783 29.37104162 10.9461001 15.87991849 -2 6 C-1.125 1.125 -1.125 1.125 0 0 Z " fill="#00C178" transform="translate(284,115)"/>
<path d="M0 0 C0.95116196 -0.0127597 1.90232391 -0.02551941 2.88230896 -0.03866577 C4.42762047 -0.04200424 4.42762047 -0.04200424 6.00415039 -0.04541016 C7.58734825 -0.05539536 7.58734825 -0.05539536 9.20252991 -0.06558228 C11.43773654 -0.07572058 13.67297352 -0.08039893 15.90820312 -0.08007812 C19.3345712 -0.08445066 22.7596511 -0.1207573 26.18579102 -0.15869141 C28.35440639 -0.16455932 30.5230279 -0.16852888 32.69165039 -0.17041016 C33.71983383 -0.18478119 34.74801727 -0.19915222 35.80735779 -0.21395874 C36.76167191 -0.20780548 37.71598602 -0.20165222 38.69921875 -0.1953125 C39.53923935 -0.19816254 40.37925995 -0.20101257 41.24473572 -0.20394897 C43.41430664 0.29052734 43.41430664 0.29052734 45.10328674 2.09481812 C46.61922852 4.63373255 47.82594027 7.27055527 49.01391602 9.97607422 C55.25413258 24.16528876 64.15667196 37.81302567 76.41430664 47.54052734 C79.3514522 49.93697111 79.3514522 49.93697111 79.91430664 53.10302734 C79.41430664 55.29052734 79.41430664 55.29052734 78.41430664 56.29052734 C62.87972442 56.04394667 47.74410443 48.75547696 34.41430664 41.29052734 C33.74125488 40.91412109 33.06820312 40.53771484 32.37475586 40.14990234 C22.84225307 34.72214275 14.71979762 28.53274322 6.94897461 20.80175781 C5.39223824 19.26879597 3.80165275 17.77971084 2.19946289 16.29443359 C1.18684792 15.33574392 0.17509133 14.37614655 -0.83569336 13.41552734 C-1.72772461 12.57248047 -2.61975586 11.72943359 -3.53881836 10.86083984 C-5.89535326 7.9016796 -6.48094895 6.05085163 -6.58569336 2.29052734 C-4.11792844 -0.17723757 -3.39760584 0.03086416 0 0 Z " fill="#00C078" transform="translate(150.585693359375,340.70947265625)"/>
<path d="M0 0 C0.99 0.99 0.99 0.99 2 2 C1.94549987 5.59095293 1.16784655 6.8299413 -1.37109375 9.40234375 C-2.38300781 10.23894531 -3.39492187 11.07554688 -4.4375 11.9375 C-17.11129424 22.97907749 -24.37068511 37.55936003 -31.69140625 52.4375 C-33 55 -33 55 -34 56 C-35.49321297 56.10350194 -36.99125657 56.13850739 -38.48803711 56.14526367 C-39.44250229 56.15164352 -40.39696747 56.15802338 -41.38035583 56.16459656 C-42.93811485 56.16626579 -42.93811485 56.16626579 -44.52734375 56.16796875 C-45.58659561 56.17129715 -46.64584747 56.17462555 -47.73719788 56.17805481 C-49.98259038 56.18312869 -52.22799045 56.18546299 -54.47338867 56.18530273 C-57.91923378 56.18748841 -61.36475852 56.20563721 -64.81054688 56.22460938 C-66.98697807 56.22754329 -69.16341079 56.2295281 -71.33984375 56.23046875 C-72.37632553 56.23765427 -73.41280731 56.24483978 -74.48069763 56.25224304 C-75.43831497 56.24916641 -76.39593231 56.24608978 -77.38256836 56.24291992 C-78.22782578 56.24434494 -79.07308319 56.24576996 -79.94395447 56.24723816 C-82 56 -82 56 -84 54 C-84.22642391 49.35830995 -82.35119517 46.91697028 -79.4375 43.5625 C-75.52380433 39.40593314 -71.38985888 35.64248147 -67 32 C-65.76636719 30.93458984 -65.76636719 30.93458984 -64.5078125 29.84765625 C-49.27526255 16.93310303 -21.18845476 -1.67277274 0 0 Z " fill="#00B068" transform="translate(228,115)"/>
<path d="M0 0 C0.83050873 0.00444122 1.66101746 0.00888245 2.51669312 0.01345825 C3.92792953 0.01368484 3.92792953 0.01368484 5.36767578 0.01391602 C6.38542084 0.02423859 7.40316589 0.03456116 8.45175171 0.04519653 C9.49213593 0.04802643 10.53252014 0.05085632 11.60443115 0.05377197 C14.93646615 0.064992 18.26823507 0.09009989 21.60018921 0.11550903 C23.85539367 0.12553648 26.11060233 0.13466273 28.36581421 0.14285278 C33.90236375 0.16493725 39.43875748 0.19843265 44.97518921 0.24050903 C44.50480772 1.68078968 44.03190913 3.12024843 43.55795288 4.55935669 C43.16334114 5.76188583 43.16334114 5.76188583 42.76075745 6.9887085 C39.62745621 15.97019359 33.7603456 23.80245082 27.97518921 31.24050903 C27.40929077 31.9739856 26.84339233 32.70746216 26.26034546 33.46316528 C20.06154072 41.03299977 11.45814835 47.45360388 1.97518921 50.24050903 C-2.29147746 49.97384237 -2.29147746 49.97384237 -4.02481079 48.24050903 C-4.12813006 46.80860043 -4.16330965 45.371681 -4.17007446 43.93606567 C-4.17645432 43.021642 -4.18283417 42.10721832 -4.18940735 41.16508484 C-4.19052017 40.17032639 -4.191633 39.17556793 -4.19277954 38.15066528 C-4.19610794 37.13580551 -4.19943634 36.12094574 -4.2028656 35.07533264 C-4.20793929 32.92409724 -4.21027379 30.77285393 -4.21011353 28.62161255 C-4.21229913 25.32061868 -4.23044786 22.01995928 -4.24942017 18.71902466 C-4.2523541 16.63373935 -4.2543389 14.54845244 -4.25527954 12.46316528 C-4.26246506 11.47043106 -4.26965057 10.47769684 -4.27705383 9.45487976 C-4.27243889 8.07851601 -4.27243889 8.07851601 -4.26773071 6.67434692 C-4.26915573 5.86461929 -4.27058075 5.05489166 -4.27204895 4.22062683 C-3.91235225 1.33983429 -2.87419735 0.34140001 0 0 Z " fill="#00AF68" transform="translate(264.0248107910156,340.7594909667969)"/>
<path d="M0 0 C9.53941315 0 18.12200417 6.38688628 24.81640625 12.6875 C33.49532439 21.8787693 41.66902491 33.60972915 45.60791016 45.7199707 C45.87076813 46.52352493 46.1336261 47.32707916 46.40444946 48.15498352 C46.60098114 48.76383896 46.79751282 49.3726944 47 50 C40.34313186 50.0505916 33.68631306 50.0856876 27.02929688 50.10986328 C24.76332751 50.11993859 22.49737119 50.13359918 20.23144531 50.15087891 C16.97978499 50.17506011 13.72829613 50.18646763 10.4765625 50.1953125 C8.94994492 50.21079636 8.94994492 50.21079636 7.39248657 50.22659302 C6.45166229 50.22674408 5.51083801 50.22689514 4.54150391 50.22705078 C3.29574081 50.23371262 3.29574081 50.23371262 2.02481079 50.24050903 C0 50 0 50 -2 48 C-2.25396729 46.02661133 -2.25396729 46.02661133 -2.25878906 43.58203125 C-2.26509338 42.66768311 -2.27139771 41.75333496 -2.27789307 40.8112793 C-2.2738446 39.82168213 -2.26979614 38.83208496 -2.265625 37.8125 C-2.26753845 36.79905518 -2.2694519 35.78561035 -2.27142334 34.74145508 C-2.27278591 32.59618888 -2.26908447 30.45091447 -2.26074219 28.30566406 C-2.25004382 25.01348428 -2.26063519 21.72185022 -2.2734375 18.4296875 C-2.27211592 16.34895712 -2.26955355 14.26822709 -2.265625 12.1875 C-2.26967346 11.19790283 -2.27372192 10.20830566 -2.27789307 9.1887207 C-2.27158875 8.27437256 -2.26528442 7.36002441 -2.25878906 6.41796875 C-2.25719788 5.61125732 -2.25560669 4.8045459 -2.25396729 3.97338867 C-2 2 -2 2 0 0 Z " fill="#00C078" transform="translate(262,121)"/>
<path d="M0 0 C6.65686814 -0.0505916 13.31368694 -0.0856876 19.97070312 -0.10986328 C22.23667249 -0.11993859 24.50262881 -0.13359918 26.76855469 -0.15087891 C30.02021501 -0.17506011 33.27170387 -0.18646763 36.5234375 -0.1953125 C38.05005508 -0.21079636 38.05005508 -0.21079636 39.60751343 -0.22659302 C40.54833771 -0.22674408 41.48916199 -0.22689514 42.45849609 -0.22705078 C43.28900482 -0.231492 44.11951355 -0.23593323 44.97518921 -0.24050903 C47 0 47 0 49 2 C49.25396729 3.97338867 49.25396729 3.97338867 49.25878906 6.41796875 C49.26509338 7.33231689 49.27139771 8.24666504 49.27789307 9.1887207 C49.2738446 10.17831787 49.26979614 11.16791504 49.265625 12.1875 C49.26849518 13.70766724 49.26849518 13.70766724 49.27142334 15.25854492 C49.27278591 17.40381112 49.26908447 19.54908553 49.26074219 21.69433594 C49.25004382 24.98651572 49.26063519 28.27814978 49.2734375 31.5703125 C49.27211592 33.65104288 49.26955355 35.73177291 49.265625 37.8125 C49.26967346 38.80209717 49.27372192 39.79169434 49.27789307 40.8112793 C49.27158875 41.72562744 49.26528442 42.63997559 49.25878906 43.58203125 C49.25719788 44.38874268 49.25560669 45.1954541 49.25396729 46.02661133 C49 48 49 48 47 50 C36.15596991 49.77869326 28.34758081 42.21616067 21 35 C20.32066406 34.34515625 19.64132813 33.6903125 18.94140625 33.015625 C14.41125823 28.31229225 11.02114249 23.08033313 7.6875 17.5 C7.26662109 16.80003906 6.84574219 16.10007812 6.41210938 15.37890625 C6.01185547 14.68667969 5.61160156 13.99445313 5.19921875 13.28125 C4.84690186 12.67345703 4.49458496 12.06566406 4.1315918 11.43945312 C2.41701411 7.74321576 1.2349415 3.87853849 0 0 Z " fill="#00C178" transform="translate(203,341)"/>
<path d="M0 0 C1.5696989 1.5696989 1.13499102 3.12440178 1.14526367 5.30444336 C1.15164352 6.21886703 1.15802338 7.13329071 1.16459656 8.07542419 C1.16570938 9.07018265 1.1668222 10.0649411 1.16796875 11.08984375 C1.17296135 12.61213341 1.17296135 12.61213341 1.17805481 14.16517639 C1.1831285 16.3164118 1.185463 18.4676551 1.18530273 20.61889648 C1.18748834 23.91989036 1.20563707 27.22054975 1.22460938 30.52148438 C1.22754331 32.60676968 1.2295281 34.69205659 1.23046875 36.77734375 C1.23765427 37.77007797 1.24483978 38.76281219 1.25224304 39.78562927 C1.24916641 40.70320511 1.24608978 41.62078094 1.24291992 42.56616211 C1.24434494 43.37588974 1.24576996 44.18561737 1.24723816 45.0198822 C1 47 1 47 -1 49 C-3.02481079 49.24050903 -3.02481079 49.24050903 -5.54150391 49.22705078 C-6.48232819 49.22689972 -7.42315247 49.22674866 -8.39248657 49.22659302 C-9.41023163 49.21627045 -10.42797668 49.20594788 -11.4765625 49.1953125 C-12.51694672 49.1924826 -13.55733093 49.18965271 -14.62924194 49.18673706 C-17.96127694 49.17551704 -21.29304586 49.15040915 -24.625 49.125 C-26.88020446 49.11497256 -29.13541312 49.1058463 -31.390625 49.09765625 C-36.92717454 49.07557178 -42.46356827 49.04207639 -48 49 C-44.11334699 36.87329845 -37.59780693 25.39120154 -29 16 C-28.26394531 15.14921875 -27.52789062 14.2984375 -26.76953125 13.421875 C-20.77015108 6.88421439 -9.6025346 -3.3057906 0 0 Z " fill="#00AF68" transform="translate(251,122)"/>
<path d="M0 0 C1.77049689 -0.05410687 3.54146849 -0.09284119 5.3125 -0.125 C6.29863281 -0.14820313 7.28476563 -0.17140625 8.30078125 -0.1953125 C11 0 11 0 14 2 C13.49279964 8.88474129 12.31223451 15.31710586 10.625 22 C7.36259529 35.58393764 5.71606306 49.4395999 4.77148438 63.37011719 C4.69736328 64.45196289 4.62324219 65.53380859 4.546875 66.6484375 C4.48854492 67.62731934 4.43021484 68.60620117 4.37011719 69.61474609 C4 72 4 72 2 74 C-0.65673828 74.25396729 -0.65673828 74.25396729 -4.0703125 74.25878906 C-5.98239502 74.26824554 -5.98239502 74.26824554 -7.93310547 74.27789307 C-9.33040504 74.27431339 -10.72770337 74.27021146 -12.125 74.265625 C-13.55224677 74.26697171 -14.97949309 74.26891229 -16.40673828 74.27142334 C-19.39945845 74.27437434 -22.39205931 74.27007782 -25.38476562 74.26074219 C-29.22516373 74.24934755 -33.06528232 74.25590717 -36.90567017 74.26788712 C-39.853293 74.27510643 -42.80084931 74.27281748 -45.74847412 74.26763153 C-47.16469353 74.26629523 -48.58091894 74.26794209 -49.99713135 74.27259064 C-51.97464893 74.27765675 -53.95218762 74.26856908 -55.9296875 74.25878906 C-57.61940674 74.25640228 -57.61940674 74.25640228 -59.34326172 74.25396729 C-62 74 -62 74 -64 72 C-64 70.35 -64 68.7 -64 67 C-37.27 66.505 -37.27 66.505 -10 66 C-9.67 60.72 -9.34 55.44 -9 50 C-8.62778614 46.08923954 -8.2336654 42.20786674 -7.75 38.3125 C-7.6257666 37.30791748 -7.5015332 36.30333496 -7.37353516 35.26831055 C-6.10067047 25.66759683 -3.93618235 16.35877963 -1.50292969 6.99462891 C-0.91869245 4.67753266 -0.43081323 2.35032552 0 0 Z " fill="#00B068" transform="translate(176,178)"/>
<path d="M0 0 C0.98871094 -0.01417969 1.97742188 -0.02835937 2.99609375 -0.04296875 C5.5625 0.1875 5.5625 0.1875 7.5625 2.1875 C10.42033251 24.96400924 -0.7060922 55.39754802 -14.4375 73.1875 C-16.90307746 74.42028873 -18.5413248 74.32098789 -21.29858398 74.33276367 C-22.8154203 74.34233345 -22.8154203 74.34233345 -24.36289978 74.35209656 C-26.0066433 74.35376579 -26.0066433 74.35376579 -27.68359375 74.35546875 C-28.80564713 74.35879715 -29.9277005 74.36212555 -31.08375549 74.36555481 C-33.46021107 74.37062452 -35.83667379 74.37296312 -38.21313477 74.37280273 C-41.85640138 74.37498884 -45.49936514 74.39314329 -49.14257812 74.41210938 C-51.44791563 74.4150433 -53.75325457 74.4170281 -56.05859375 74.41796875 C-57.15239853 74.42515427 -58.24620331 74.43233978 -59.37315369 74.43974304 C-60.38753006 74.43666641 -61.40190643 74.43358978 -62.44702148 74.43041992 C-63.7869944 74.43255745 -63.7869944 74.43255745 -65.15403748 74.43473816 C-67.4375 74.1875 -67.4375 74.1875 -70.4375 72.1875 C-70.1075 70.5375 -69.7775 68.8875 -69.4375 67.1875 C-55.2475 66.8575 -41.0575 66.5275 -26.4375 66.1875 C-25.7775 64.5375 -25.1175 62.8875 -24.4375 61.1875 C-23.80306701 59.8772439 -23.15213863 58.57483726 -22.484375 57.28125 C-13.9966575 40.43363091 -9.3592119 23.60357223 -6.98046875 4.921875 C-6.17453453 -0.62109702 -5.22341381 0.03396238 0 0 Z " fill="#00AF68" transform="translate(392.4375,259.8125)"/>
<path d="M0 0 C10 0 10 0 13 2 C13.36749268 4.92921448 13.36749268 4.92921448 13.35644531 8.72875977 C13.35848969 9.41994904 13.36053406 10.11113831 13.36264038 10.82327271 C13.36565393 13.11291774 13.3471566 15.40184657 13.328125 17.69140625 C13.32506854 19.27798789 13.32319156 20.86457221 13.32244873 22.45115662 C13.31784225 25.77768201 13.30340225 29.10396577 13.28125 32.43041992 C13.2529443 36.70356229 13.24203668 40.97651434 13.2375679 45.24974155 C13.23341983 48.52587301 13.22360789 51.80196563 13.21169281 55.07807732 C13.20597883 56.65421168 13.20122388 58.2303498 13.19742584 59.80648994 C13.19058376 62.00460568 13.17696195 64.20256773 13.16113281 66.40063477 C13.15430481 67.65368912 13.14747681 68.90674347 13.14044189 70.19776917 C13 73 13 73 12 74 C10.07238183 74.09920863 8.14110646 74.12799365 6.2109375 74.12939453 C4.9729541 74.13254669 3.7349707 74.13569885 2.45947266 74.13894653 C1.09798141 74.13715675 -0.26350951 74.1351058 -1.625 74.1328125 C-3.01123064 74.13348559 -4.39746117 74.13445566 -5.78369141 74.13571167 C-8.69239422 74.1371884 -11.60106637 74.1350349 -14.50976562 74.13037109 C-18.24596598 74.12467381 -21.98209452 74.12795294 -25.71829224 74.13394356 C-28.58179266 74.13754985 -31.44527593 74.13641027 -34.30877686 74.13381577 C-35.68674732 74.13314668 -37.06471932 74.13397426 -38.44268799 74.13629532 C-40.36543754 74.13882292 -42.28819252 74.13429024 -44.2109375 74.12939453 C-45.85521729 74.12820114 -45.85521729 74.12820114 -47.53271484 74.12698364 C-50 74 -50 74 -51 73 C-51 71.02 -51 69.04 -51 67 C-34.5 66.67 -18 66.34 -1 66 C-0.67 44.22 -0.34 22.44 0 0 Z " fill="#00AF68" transform="translate(239,178)"/>
<path d="M0 0 C1.97909398 -0.02686553 3.95828971 -0.04633375 5.9375 -0.0625 C7.03964844 -0.07410156 8.14179688 -0.08570313 9.27734375 -0.09765625 C12 0 12 0 13 1 C14.16195822 19.45725939 11.23887301 37.65149205 7 55.5625 C6.7510498 56.6151001 6.50209961 57.6677002 6.24560547 58.75219727 C4.98949135 63.80914653 3.74855157 68.51119704 1 73 C-1.37692433 74.18846216 -2.84186011 74.1329575 -5.49389648 74.14526367 C-6.89060829 74.15483345 -6.89060829 74.15483345 -8.3155365 74.16459656 C-9.82803734 74.16626579 -9.82803734 74.16626579 -11.37109375 74.16796875 C-12.92099754 74.17296135 -12.92099754 74.17296135 -14.50221252 74.17805481 C-16.69035394 74.1831238 -18.87850311 74.18546314 -21.06665039 74.18530273 C-24.42021376 74.18748873 -27.77344803 74.20564354 -31.12695312 74.22460938 C-33.24999887 74.22754335 -35.37304618 74.22952812 -37.49609375 74.23046875 C-39.00555824 74.24124702 -39.00555824 74.24124702 -40.54551697 74.25224304 C-41.47981033 74.24916641 -42.4141037 74.24608978 -43.37670898 74.24291992 C-44.19896469 74.24434494 -45.0212204 74.24576996 -45.86839294 74.24723816 C-48 74 -48 74 -51 72 C-51 70.35 -51 68.7 -51 67 C-38.46 66.67 -25.92 66.34 -13 66 C-9.76529219 59.01792084 -9.76529219 59.01792084 -7.5859375 51.984375 C-7.38331299 51.13311035 -7.18068848 50.2818457 -6.97192383 49.40478516 C-6.67644653 48.0906665 -6.67644653 48.0906665 -6.375 46.75 C-6.05535278 45.356604 -6.05535278 45.356604 -5.72924805 43.93505859 C-2.45235454 29.3961395 -1.18231921 14.83221349 0 0 Z " fill="#00AF68" transform="translate(311,260)"/>
<path d="M0 0 C1.41493551 -0.10884119 2.83232943 -0.18597617 4.25 -0.25 C5.03890625 -0.29640625 5.8278125 -0.3428125 6.640625 -0.390625 C9 0 9 0 11.10546875 1.3515625 C14.01038656 5.41245792 14.89674937 9.81564447 16.0625 14.625 C16.31926514 15.64811279 16.57603027 16.67122559 16.84057617 17.7253418 C19.05215469 26.75214987 20.72999321 35.79718961 22 45 C22.13148438 45.89074219 22.26296875 46.78148437 22.3984375 47.69921875 C23.10240495 53.30241914 23.09702171 58.92295371 23.125 64.5625 C23.12975342 65.37396484 23.13450684 66.18542969 23.1394043 67.02148438 C23.12258407 72.87741593 23.12258407 72.87741593 22 74 C20.07238183 74.09920863 18.14110646 74.12799365 16.2109375 74.12939453 C14.9729541 74.13254669 13.7349707 74.13569885 12.45947266 74.13894653 C11.09798141 74.13715675 9.73649049 74.1351058 8.375 74.1328125 C6.98876936 74.13348559 5.60253883 74.13445566 4.21630859 74.13571167 C1.30760578 74.1371884 -1.60106637 74.1350349 -4.50976562 74.13037109 C-8.24596598 74.12467381 -11.98209452 74.12795294 -15.71829224 74.13394356 C-18.58179266 74.13754985 -21.44527593 74.13641027 -24.30877686 74.13381577 C-25.68674732 74.13314668 -27.06471932 74.13397426 -28.44268799 74.13629532 C-30.36543754 74.13882292 -32.28819252 74.13429024 -34.2109375 74.12939453 C-35.85521729 74.12820114 -35.85521729 74.12820114 -37.53271484 74.12698364 C-40 74 -40 74 -41 73 C-41 71.02 -41 69.04 -41 67 C-24.5 66.67 -8 66.34 9 66 C9 57.16170003 8.9396803 48.87772886 7.875 40.1875 C7.74955811 39.13941162 7.62411621 38.09132324 7.49487305 37.01147461 C6.03843168 25.84542412 3.38067641 14.99946912 0.50317383 4.12524414 C0 2 0 2 0 0 Z " fill="#00B068" transform="translate(301,178)"/>
<path d="M0 0 C7.24561404 -0.61403509 7.24561404 -0.61403509 10.51953125 2.05078125 C13.30742216 5.36551768 15.1456884 8.61210802 17 12.5 C17.34321289 13.20705078 17.68642578 13.91410156 18.04003906 14.64257812 C26.32150195 31.95340647 33.27630465 52.53635408 32 72 C29.26538241 74.73461759 27.75715327 74.25338265 23.9296875 74.25878906 C22.01760498 74.26824554 22.01760498 74.26824554 20.06689453 74.27789307 C18.66959496 74.27431339 17.27229663 74.27021146 15.875 74.265625 C14.44775323 74.26697171 13.02050691 74.26891229 11.59326172 74.27142334 C8.60054155 74.27437434 5.60794069 74.27007782 2.61523438 74.26074219 C-1.22516373 74.24934755 -5.06528232 74.25590717 -8.90567017 74.26788712 C-11.853293 74.27510643 -14.80084931 74.27281748 -17.74847412 74.26763153 C-19.16469353 74.26629523 -20.58091894 74.26794209 -21.99713135 74.27259064 C-23.97464893 74.27765675 -25.95218762 74.26856908 -27.9296875 74.25878906 C-29.61940674 74.25640228 -29.61940674 74.25640228 -31.34326172 74.25396729 C-34 74 -34 74 -36 72 C-36 70.35 -36 68.7 -36 67 C-18.18 67 -0.36 67 18 67 C17.31880994 53.99442089 17.31880994 53.99442089 15.4375 41.25 C15.27113037 40.42636963 15.10476074 39.60273926 14.93334961 38.75415039 C12.80438279 29.05858396 9.00800383 20.04815551 5 11 C4.71882324 10.3601416 4.43764648 9.7202832 4.14794922 9.06103516 C2.80622358 6.02085858 1.43084216 2.99926529 0 0 Z " fill="#00B068" transform="translate(368,178)"/>
<path d="M0 0 C4.29 0 8.58 0 13 0 C13.06769655 9.22269978 13.12277002 18.44523536 13.15543652 27.66812706 C13.17111243 31.95039452 13.19238549 36.23248364 13.22631836 40.51464844 C13.25884364 44.6448912 13.2768385 48.77496211 13.28463173 52.90532303 C13.29018758 54.48345268 13.30103646 56.06157261 13.31719017 57.63962936 C13.33887438 59.84508561 13.34197082 62.04982592 13.34057617 64.25537109 C13.34723801 65.51223724 13.35389984 66.76910339 13.36076355 68.0640564 C13.24171158 69.03291779 13.12265961 70.00177917 13 71 C9.82109067 73.11927289 9.03307011 73.25171823 5.39257812 73.25878906 C4.46151245 73.26509338 3.53044678 73.27139771 2.57116699 73.27789307 C1.56799438 73.2738446 0.56482178 73.26979614 -0.46875 73.265625 C-2.01653137 73.26849518 -2.01653137 73.26849518 -3.59558105 73.27142334 C-5.77775313 73.27278467 -7.95993332 73.26909187 -10.14208984 73.26074219 C-13.48683827 73.25004211 -16.83104957 73.26063941 -20.17578125 73.2734375 C-22.29427202 73.2721159 -24.41276246 73.26955349 -26.53125 73.265625 C-27.53442261 73.26967346 -28.53759521 73.27372192 -29.57116699 73.27789307 C-30.50223267 73.27158875 -31.43329834 73.26528442 -32.39257812 73.25878906 C-33.21181763 73.25719788 -34.03105713 73.25560669 -34.87512207 73.25396729 C-37 73 -37 73 -40 71 C-40.1875 68.375 -40.1875 68.375 -40 66 C-38.28115601 65.96241577 -38.28115601 65.96241577 -36.52758789 65.92407227 C-32.29146402 65.83016894 -28.05551072 65.72990725 -23.81958008 65.62768555 C-21.98335753 65.5842718 -20.14709292 65.54260161 -18.31079102 65.50268555 C-15.67711689 65.44513831 -13.04365579 65.38140002 -10.41015625 65.31640625 C-9.17109276 65.29133751 -9.17109276 65.29133751 -7.90699768 65.26576233 C-4.14523247 65.52192567 -4.14523247 65.52192567 -1 64 C-0.87630675 62.0064857 -0.8220361 60.0086353 -0.79467773 58.01147461 C-0.77473251 56.73022202 -0.75478729 55.44896942 -0.73423767 54.12889099 C-0.71725203 52.72004316 -0.70037327 51.31119405 -0.68359375 49.90234375 C-0.66303085 48.46887095 -0.64203456 47.03540431 -0.62062073 45.60194397 C-0.56533141 41.8224688 -0.51595255 38.0429383 -0.46777344 34.2633667 C-0.41760835 30.40925145 -0.36189629 26.55521691 -0.30664062 22.70117188 C-0.19897518 15.13418091 -0.09806138 7.56712263 0 0 Z " fill="#00AF68" transform="translate(239,261)"/>
<path d="M0 0 C1.79133978 -0.05391993 3.58313899 -0.09275571 5.375 -0.125 C6.37273437 -0.14820313 7.37046875 -0.17140625 8.3984375 -0.1953125 C11 0 11 0 13 2 C13.4230957 4.67602539 13.4230957 4.67602539 13.67578125 8.09765625 C13.77898682 9.36279053 13.88219238 10.6279248 13.98852539 11.93139648 C14.04090363 12.6053244 14.09328186 13.27925232 14.14724731 13.97360229 C15.44921586 30.43130216 18.03836627 46.46842268 22.1328125 62.48046875 C22.96551386 65.86003597 23.41145161 68.54380651 23 72 C19.73092494 74.17938337 18.80817955 74.24897468 15.02539062 74.24291992 C14.01424194 74.24599655 13.00309326 74.24907318 11.96130371 74.25224304 C10.32530212 74.24146477 10.32530212 74.24146477 8.65625 74.23046875 C7.53561157 74.23001053 6.41497314 74.22955231 5.26037598 74.2290802 C2.88988181 74.22605777 0.51938964 74.21817176 -1.85107422 74.20581055 C-5.48542292 74.18757315 -9.1195166 74.18530074 -12.75390625 74.18554688 C-15.05468971 74.18063093 -17.35547144 74.17480227 -19.65625 74.16796875 C-20.74691772 74.16685593 -21.83758545 74.1657431 -22.96130371 74.16459656 C-23.97245239 74.15821671 -24.98360107 74.15183685 -26.02539062 74.14526367 C-26.9156897 74.14145187 -27.80598877 74.13764008 -28.7232666 74.13371277 C-31 74 -31 74 -34 73 C-36 70 -36 70 -36 67 C-13.23 66.505 -13.23 66.505 10 66 C8.3603125 59.1009375 8.3603125 59.1009375 6.6875 52.0625 C4.32611499 41.81680331 2.28687596 31.64326926 1.0625 21.1875 C0.94672607 20.20080322 0.83095215 19.21410645 0.71166992 18.19750977 C0.06628847 12.11420169 -0.12730829 6.11495817 0 0 Z " fill="#00B068" transform="translate(167,260)"/>
<path d="M0 0 C7.25767288 3.16727391 11.34197928 9.83539339 14.2734375 16.921875 C17.69297226 26.7024798 17.18254233 38.25153236 13.13671875 47.734375 C8.49227774 56.99133646 0.51571825 65.23017272 -9.375 68.8125 C-21.23405278 72.2181767 -32.81303918 71.39106261 -43.73046875 65.4296875 C-47.0884344 63.31434253 -50.45717282 61.08170446 -53 58 C-53 57.01 -53 56.02 -53 55 C-51.37433394 55.47690204 -49.74948689 55.95659666 -48.125 56.4375 C-47.22007812 56.70433594 -46.31515625 56.97117188 -45.3828125 57.24609375 C-43 58 -43 58 -41 59 C-28.63850156 59.94668324 -16.80480934 58.03539838 -7 50 C1.16412792 40.79452924 5.3224557 31.70796103 5.15625 19.3671875 C4.73325472 12.95880901 3.03504382 7.65621803 0 2 C0 1.34 0 0.68 0 0 Z " fill="#F05543" transform="translate(279,32)"/>
<path d="M0 0 C2.99196531 0.32128487 3.94786314 0.94396038 6.03515625 3.1875 C13.74675071 13.88566573 17.15741503 23.74222726 15.375 37 C13.405187 47.28533233 8.45998995 55.9841353 -0.125 62.125 C-11.06880056 68.95364403 -22.54028954 71.06351527 -35.1875 68.3046875 C-42.90211733 65.75457788 -49.69628201 61.18767099 -55 55 C-55 54.34 -55 53.68 -55 53 C-54.360625 53.268125 -53.72125 53.53625 -53.0625 53.8125 C-52.051875 54.204375 -51.04125 54.59625 -50 55 C-49.36835937 55.26425781 -48.73671875 55.52851563 -48.0859375 55.80078125 C-39.15627462 59.22652465 -29.03818474 59.18706333 -20 56 C-9.58968921 51.16236789 -2.40056871 44.60122087 1.8125 33.75 C5.13240957 23.26607505 4.54850033 14.31455277 1 4 C0.65224663 2.67035475 0.31393497 1.33803353 0 0 Z " fill="#F05543" transform="translate(87,226)"/>
<path d="M0 0 C7.25767288 3.16727391 11.34197928 9.83539339 14.2734375 16.921875 C17.64060232 26.55269051 17.26499219 38.24994832 13.2578125 47.609375 C7.95898007 57.68044781 -0.12338258 65.36795181 -11 69 C-23.12339102 72.03594162 -34.65330434 70.21754751 -45.375 64.0625 C-49.50810602 60.81505955 -52.97440305 57.2995325 -56 53 C-53.50382938 53.98955335 -51.02128501 54.9906537 -48.5625 56.0703125 C-38.94989395 60.02672048 -29.21429365 60.48387933 -19.3359375 57.03125 C-9.03791974 52.48496791 -0.81015027 44.59615422 3.32421875 34.05078125 C6.49885275 24.41677633 5.69019097 13.69078858 1.375 4.5625 C0.694375 3.2940625 0.694375 3.2940625 0 2 C0 1.34 0 0.68 0 0 Z " fill="#F05543" transform="translate(472,225)"/>
<path d="M0 0 C8.43233188 5.22804577 13.17247316 12.4641738 16.3046875 21.84765625 C18.78392919 33.08781381 17.6364892 44.26337306 11.6796875 54.203125 C5.44070564 63.13543783 -3.12764524 69.94098768 -14 72 C-26.74654586 72.86682196 -37.02962241 71.70303464 -47.34375 63.46484375 C-50.55882353 60.62132353 -50.55882353 60.62132353 -52 59 C-52 58.34 -52 57.68 -52 57 C-51.39671875 57.20496094 -50.7934375 57.40992188 -50.171875 57.62109375 C-49.37265625 57.89050781 -48.5734375 58.15992188 -47.75 58.4375 C-46.96109375 58.70433594 -46.1721875 58.97117187 -45.359375 59.24609375 C-35.10954418 62.52128804 -24.93267262 61.94745867 -15.046875 57.6796875 C-5.40602517 52.36486003 1.25716794 44.52731892 4.8125 34.1875 C7.16840223 25.45995311 7.09364308 15.17547836 2.9765625 6.95703125 C2.00777753 5.29085852 1.00637295 3.64374249 0 2 C0 1.34 0 0.68 0 0 Z " fill="#EF5543" transform="translate(278,416)"/>
<path d="M0 0 C1.51815699 0.00015911 3.0363194 0.00585313 4.55444336 0.01586914 C5.35208603 0.01728409 6.1497287 0.01869904 6.97154236 0.02015686 C9.52916146 0.02577223 12.08669429 0.03832727 14.64428711 0.05102539 C16.37410356 0.05603841 18.10392137 0.06060166 19.83374023 0.06469727 C24.08312264 0.07574664 28.33244023 0.09302153 32.58178711 0.11352539 C19.78717279 19.69919244 -1.2906809 32.21488938 -22.16821289 41.67602539 C-22.95558838 42.035271 -23.74296387 42.3945166 -24.55419922 42.76464844 C-26.4816951 43.61230639 -28.44767545 44.37140238 -30.41821289 45.11352539 C-31.07821289 44.78352539 -31.73821289 44.45352539 -32.41821289 44.11352539 C-31.81235352 43.50508789 -31.20649414 42.89665039 -30.58227539 42.26977539 C-19.85570952 31.04813725 -12.60728747 18.07212596 -5.91430664 4.14868164 C-3.93373087 0.13064673 -3.93373087 0.13064673 0 0 Z " fill="#00C078" transform="translate(321.418212890625,340.886474609375)"/>
<path d="M0 0 C-0.46148437 0.47566406 -0.92296875 0.95132813 -1.3984375 1.44140625 C-11.43928669 12.21646773 -18.46933205 24.21100477 -24.40625 37.61328125 C-26 41 -26 41 -28 43 C-30.72485728 43.17517747 -33.34659362 43.23149133 -36.0703125 43.1953125 C-36.86654022 43.1924826 -37.66276794 43.18965271 -38.48312378 43.18673706 C-41.03056763 43.1755264 -43.57766211 43.15042062 -46.125 43.125 C-47.85025535 43.11497133 -49.57551619 43.10584528 -51.30078125 43.09765625 C-55.53398914 43.07558422 -59.7669353 43.04104867 -64 43 C-63.05052441 41.88322508 -62.09975103 40.76755346 -61.1484375 39.65234375 C-60.61911621 39.03093506 -60.08979492 38.40952637 -59.54443359 37.76928711 C-57.47139427 35.39443476 -55.25557045 33.2018664 -53 31 C-52.50757813 30.45085937 -52.01515625 29.90171875 -51.5078125 29.3359375 C-42.78788593 19.91841681 -13.7220152 -4.57400507 0 0 Z " fill="#00C178" transform="translate(209,121)"/>
<path d="M0 0 C1.2463623 0.01047363 2.49272461 0.02094727 3.77685547 0.03173828 C4.77143265 0.03598312 4.77143265 0.03598312 5.78610229 0.04031372 C7.9055988 0.05151643 10.02467401 0.07662027 12.14404297 0.10205078 C13.58023479 0.11208051 15.01643322 0.12120637 16.45263672 0.12939453 C19.97490925 0.15145578 23.496935 0.18598585 27.01904297 0.22705078 C26.52054604 3.88570832 26.00206406 6.81141547 24.05029297 9.96142578 C23.64875 10.61312744 23.24720703 11.2648291 22.83349609 11.9362793 C22.1828418 12.94646118 22.1828418 12.94646118 21.51904297 13.97705078 C21.06980469 14.68079834 20.62056641 15.3845459 20.15771484 16.10961914 C13.97869206 25.58346894 6.95091663 33.55705863 -2.98095703 39.22705078 C-3.64095703 39.22705078 -4.30095703 39.22705078 -4.98095703 39.22705078 C-5.03031528 33.99431747 -5.06665652 28.76171902 -5.09082031 23.52880859 C-5.10089135 21.74786011 -5.11454888 19.96692821 -5.13183594 18.18603516 C-5.15603616 15.62935295 -5.16742887 13.07288893 -5.17626953 10.51611328 C-5.1865921 9.71710602 -5.19691467 8.91809875 -5.20755005 8.09487915 C-5.2079493 6.13747859 -5.10336772 4.18062002 -4.98095703 2.22705078 C-2.98095703 0.22705078 -2.98095703 0.22705078 0 0 Z " fill="#00C078" transform="translate(264.98095703125,340.77294921875)"/>
<path d="M0 0 C0.04935824 5.23273331 0.08569949 10.46533176 0.10986328 15.69824219 C0.11993431 17.47919067 0.13359185 19.26012257 0.15087891 21.04101562 C0.17507913 23.59769783 0.18647184 26.15416185 0.1953125 28.7109375 C0.20563507 29.50994476 0.21595764 30.30895203 0.22659302 31.13217163 C0.22699226 33.0895722 0.12241069 35.04643077 0 37 C-2 39 -2 39 -5.07275391 39.22705078 C-6.36101074 39.21657715 -7.64926758 39.20610352 -8.9765625 39.1953125 C-9.66181 39.1924826 -10.3470575 39.18965271 -11.05307007 39.18673706 C-13.24389027 39.17553281 -15.43430316 39.15042859 -17.625 39.125 C-19.1093691 39.11497048 -20.5937446 39.10584458 -22.078125 39.09765625 C-25.71888261 39.07559294 -29.35940156 39.04106176 -33 39 C-14.80645161 0 -14.80645161 0 0 0 Z " fill="#00C178" transform="translate(239,125)"/>
<path d="M0 0 C11.4040437 1.74200312 20.69340309 10.80118808 27.5 19.5625 C33.13366653 27.34046867 38.62168924 35.53872923 41.60791016 44.7199707 C41.87076813 45.52352493 42.1336261 46.32707916 42.40444946 47.15498352 C42.60098114 47.76383896 42.79751282 48.3726944 43 49 C36.34313186 49.0505916 29.68631306 49.0856876 23.02929688 49.10986328 C20.76332751 49.11993859 18.49737119 49.13359918 16.23144531 49.15087891 C12.97978499 49.17506011 9.72829613 49.18646763 6.4765625 49.1953125 C4.94994492 49.21079636 4.94994492 49.21079636 3.39248657 49.22659302 C2.45166229 49.22674408 1.51083801 49.22689514 0.54150391 49.22705078 C-0.70425919 49.23371262 -0.70425919 49.23371262 -1.97518921 49.24050903 C-4 49 -4 49 -6 47 C-6 45.35 -6 43.7 -6 42 C11.325 41.505 11.325 41.505 29 41 C22.07864059 26.5280667 14.90689149 14.04615235 3 3 C1.99554572 2.00447421 0.99373059 1.00623035 0 0 Z " fill="#00B069" transform="translate(266,122)"/>
<path d="M0 0 C1.79133978 -0.05391993 3.58313899 -0.09275571 5.375 -0.125 C6.37273437 -0.14820313 7.37046875 -0.17140625 8.3984375 -0.1953125 C11 0 11 0 13 2 C13.25396729 3.97338867 13.25396729 3.97338867 13.25878906 6.41796875 C13.26509338 7.33231689 13.27139771 8.24666504 13.27789307 9.1887207 C13.2738446 10.17831787 13.26979614 11.16791504 13.265625 12.1875 C13.26753845 13.20094482 13.2694519 14.21438965 13.27142334 15.25854492 C13.27278591 17.40381112 13.26908447 19.54908553 13.26074219 21.69433594 C13.25004382 24.98651572 13.26063519 28.27814978 13.2734375 31.5703125 C13.27211592 33.65104288 13.26955355 35.73177291 13.265625 37.8125 C13.26967346 38.80209717 13.27372192 39.79169434 13.27789307 40.8112793 C13.27158875 41.72562744 13.26528442 42.63997559 13.25878906 43.58203125 C13.25640228 44.79209839 13.25640228 44.79209839 13.25396729 46.02661133 C13 48 13 48 11 50 C5.27551379 49.77551034 1.71519547 47.98308285 -3 45 C-2.67657623 44.42699158 -2.35315247 43.85398315 -2.01992798 43.26361084 C-0.95071234 40.89061181 -0.72894597 39.36308228 -0.68115234 36.78222656 C-0.66128265 35.96167786 -0.64141296 35.14112915 -0.62094116 34.29571533 C-0.60938995 33.41953552 -0.59783875 32.54335571 -0.5859375 31.640625 C-0.56657135 30.73624695 -0.5472052 29.8318689 -0.5272522 28.90008545 C-0.46756169 26.01681901 -0.42111314 23.13351242 -0.375 20.25 C-0.33681053 18.29295152 -0.29775823 16.33591967 -0.2578125 14.37890625 C-0.16186875 9.58607289 -0.07779873 4.79316085 0 0 Z " fill="#00AF68" transform="translate(239,341)"/>
<path d="M0 0 C4.65514954 0.56640603 8.19430327 2.59308211 12.125 5 C12.78733643 5.40299316 13.44967285 5.80598633 14.13208008 6.22119141 C20.19451614 9.9883269 25.65970262 14.26338841 31 19 C31.50692383 19.44666016 32.01384766 19.89332031 32.53613281 20.35351562 C48.56001742 34.52509797 48.56001742 34.52509797 49.5 39.8125 C49 42 49 42 47 44 C44.95741272 44.26742554 44.95741272 44.26742554 42.41430664 44.29052734 C41.46314468 44.30328705 40.51198273 44.31604675 39.53199768 44.32919312 C37.98668617 44.33253159 37.98668617 44.33253159 36.41015625 44.3359375 C35.35469101 44.3425943 34.29922577 44.3492511 33.21177673 44.35610962 C30.9765701 44.36624792 28.74133312 44.37092628 26.50610352 44.37060547 C23.07973544 44.37497801 19.65465554 44.41128464 16.22851562 44.44921875 C14.05990025 44.45508667 11.89127874 44.45905623 9.72265625 44.4609375 C8.69447281 44.47530853 7.66628937 44.48967957 6.60694885 44.50448608 C5.65263474 44.49833282 4.69832062 44.49217957 3.71508789 44.48583984 C2.45505699 44.4901149 2.45505699 44.4901149 1.16957092 44.49447632 C-1 44 -1 44 -2.79469299 42.15713501 C-4 40 -4 40 -4 37 C8.87 36.67 21.74 36.34 35 36 C35.4936044 31.29001814 35.4936044 31.29001814 33.64453125 29.15625 C33.03996094 28.6096875 32.43539062 28.063125 31.8125 27.5 C31.22082031 26.9534375 30.62914062 26.406875 30.01953125 25.84375 C29.35308594 25.2353125 28.68664062 24.626875 28 24 C26.33198871 22.33467905 24.66540452 20.66792786 23 19 C16.4386185 12.64592913 9.95241488 7.36766226 2.23828125 2.49609375 C1.13033203 1.75552734 1.13033203 1.75552734 0 1 C0 0.67 0 0.34 0 0 Z " fill="#00B169" transform="translate(319,127)"/>
<path d="M0 0 C1.6026782 -0.10824843 3.20745748 -0.18570645 4.8125 -0.25 C5.70582031 -0.29640625 6.59914062 -0.3428125 7.51953125 -0.390625 C10 0 10 0 11.6015625 1.5234375 C13.10009472 4.17726272 14.37467045 6.89584727 15.59960938 9.68554688 C21.83982594 23.87476142 30.74236532 37.52249833 43 47.25 C45.93714556 49.64644376 45.93714556 49.64644376 46.5 52.8125 C46 55 46 55 45 56 C34.12199815 55.8273333 22.64492568 51.99992732 13 47 C13 46.34 13 45.68 13 45 C13.78503906 45.2165625 14.57007813 45.433125 15.37890625 45.65625 C21.06146019 47.1623011 26.11655525 48.40114396 32 48 C31.68658934 44.78754069 31.2868481 43.30164582 29.03125 40.9296875 C28.1959375 40.25164062 27.360625 39.57359375 26.5 38.875 C14.25287276 28.26546872 6.12409178 14.86729199 0 0 Z " fill="#00B068" transform="translate(184,341)"/>
<path d="M0 0 C1.77734375 1.359375 1.77734375 1.359375 3 3 C2.875 5.5625 2.875 5.5625 2 8 C-1.06489047 10.04326031 -1.73924785 10.19654108 -5.1875 10.3125 C-11.78258486 10.93447548 -16.57758007 14.11167119 -20.875 19.0625 C-24.57111657 24.17183762 -25.50863344 28.35214772 -26.4375 34.5390625 C-27 37 -27 37 -29 39 C-31.5 39.25 -31.5 39.25 -34 39 C-36.42901902 36.57098098 -36.32209476 35.84361143 -36.375 32.5 C-36.1085968 22.74123011 -32.0103971 16.14377743 -25.37109375 9.19921875 C-18.3961852 2.72990489 -9.75122768 -1.72736033 0 0 Z " fill="#FC9188" transform="translate(452,223)"/>
<path d="M0 0 C1 1.8125 1 1.8125 0.8125 4.375 C0 6.8125 0 6.8125 -2 8.8125 C-3.8828125 9.0859375 -3.8828125 9.0859375 -6.125 9.1875 C-12.74985306 9.82552758 -17.72696111 12.13210034 -22.3125 17 C-25.4043164 20.91294921 -26.73453453 25.04395793 -28 29.8125 C-28.39512883 31.1668724 -28.79089137 32.5210602 -29.1875 33.875 C-29.455625 34.844375 -29.72375 35.81375 -30 36.8125 C-32.3125 37.5 -32.3125 37.5 -35 37.8125 C-37.00321331 36.31485958 -37.87574002 35.35991558 -38.43359375 32.90234375 C-38.45212235 22.69308783 -34.54970689 15.40341136 -27.57421875 8.08203125 C-21.10463301 2.37819314 -8.6832948 -5.15570629 0 0 Z " fill="#FC9188" transform="translate(261,31.1875)"/>
<path d="M0 0 C1.7734375 1.359375 1.7734375 1.359375 3 3 C2.6875 5.6875 2.6875 5.6875 2 8 C1.030625 8.268125 0.06125 8.53625 -0.9375 8.8125 C-1.89462891 9.09287109 -1.89462891 9.09287109 -2.87109375 9.37890625 C-4.31647488 9.80058625 -5.76739197 10.20364883 -7.22265625 10.58984375 C-13.64717622 12.45218316 -18.40364027 15.22716477 -22.25 20.81640625 C-24.7265271 25.32332138 -25.74017635 29.8383053 -26.5078125 34.8984375 C-27 37 -27 37 -29 39 C-32.0625 38.75 -32.0625 38.75 -35 38 C-37.15898426 33.68203148 -36.17399358 29.00850728 -34.8125 24.5625 C-31.31536905 15.0541716 -25.46020828 7.61041467 -16.51171875 2.609375 C-11.29085446 0.30342561 -5.70409409 -1.29479436 0 0 Z " fill="#FC9188" transform="translate(66,223)"/>
<path d="M0 0 C2 2 2 2 2.25 4.5 C2 7 2 7 0 9 C-1.69706136 9.33426966 -3.40905831 9.59501992 -5.125 9.8125 C-12.26568105 11.01819091 -16.68135586 13.73288129 -21.8125 18.75 C-24.4675949 22.69471242 -25.74086724 26.45138291 -27 31 C-27.20625 31.70382812 -27.4125 32.40765625 -27.625 33.1328125 C-28.09679861 34.75134386 -28.55056424 36.37511687 -29 38 C-31.3125 38.6875 -31.3125 38.6875 -34 39 C-36.00321331 37.50235958 -36.87574002 36.54741558 -37.43359375 34.08984375 C-37.45240991 23.72213718 -33.45050683 16.60412209 -26.37109375 9.19921875 C-18.80048458 2.1773852 -10.41857839 -1.27421462 0 0 Z " fill="#FC9188" transform="translate(260,416)"/>
</svg>
